<?xml version="1.0" encoding="utf-8"?>
<svg xmlns="http://www.w3.org/2000/svg" xmlns:xlink="http://www.w3.org/1999/xlink" width="600" height="400" viewBox="0 0 2400 1600">
<defs>
  <clipPath id="clip780">
    <rect x="0" y="0" width="2400" height="1600"/>
  </clipPath>
</defs>
<path clip-path="url(#clip780)" d="
M0 1600 L2400 1600 L2400 0 L0 0  Z
  " fill="#ffffff" fill-rule="evenodd" fill-opacity="1"/>
<defs>
  <clipPath id="clip781">
    <rect x="480" y="0" width="1681" height="1600"/>
  </clipPath>
</defs>
<path clip-path="url(#clip780)" d="
M179.654 1486.45 L2352.76 1486.45 L2352.76 47.2441 L179.654 47.2441  Z
  " fill="#ffffff" fill-rule="evenodd" fill-opacity="1"/>
<defs>
  <clipPath id="clip782">
    <rect x="179" y="47" width="2174" height="1440"/>
  </clipPath>
</defs>
<polyline clip-path="url(#clip782)" style="stroke:#000000; stroke-width:2; stroke-opacity:0.1; fill:none" points="
  237.048,1486.45 237.048,47.2441 
  "/>
<polyline clip-path="url(#clip782)" style="stroke:#000000; stroke-width:2; stroke-opacity:0.1; fill:none" points="
  647.889,1486.45 647.889,47.2441 
  "/>
<polyline clip-path="url(#clip782)" style="stroke:#000000; stroke-width:2; stroke-opacity:0.1; fill:none" points="
  1058.73,1486.45 1058.73,47.2441 
  "/>
<polyline clip-path="url(#clip782)" style="stroke:#000000; stroke-width:2; stroke-opacity:0.1; fill:none" points="
  1469.57,1486.45 1469.57,47.2441 
  "/>
<polyline clip-path="url(#clip782)" style="stroke:#000000; stroke-width:2; stroke-opacity:0.1; fill:none" points="
  1880.41,1486.45 1880.41,47.2441 
  "/>
<polyline clip-path="url(#clip782)" style="stroke:#000000; stroke-width:2; stroke-opacity:0.1; fill:none" points="
  2291.25,1486.45 2291.25,47.2441 
  "/>
<polyline clip-path="url(#clip780)" style="stroke:#000000; stroke-width:4; stroke-opacity:1; fill:none" points="
  179.654,1486.45 2352.76,1486.45 
  "/>
<polyline clip-path="url(#clip780)" style="stroke:#000000; stroke-width:4; stroke-opacity:1; fill:none" points="
  237.048,1486.45 237.048,1469.18 
  "/>
<polyline clip-path="url(#clip780)" style="stroke:#000000; stroke-width:4; stroke-opacity:1; fill:none" points="
  647.889,1486.45 647.889,1469.18 
  "/>
<polyline clip-path="url(#clip780)" style="stroke:#000000; stroke-width:4; stroke-opacity:1; fill:none" points="
  1058.73,1486.45 1058.73,1469.18 
  "/>
<polyline clip-path="url(#clip780)" style="stroke:#000000; stroke-width:4; stroke-opacity:1; fill:none" points="
  1469.57,1486.45 1469.57,1469.18 
  "/>
<polyline clip-path="url(#clip780)" style="stroke:#000000; stroke-width:4; stroke-opacity:1; fill:none" points="
  1880.41,1486.45 1880.41,1469.18 
  "/>
<polyline clip-path="url(#clip780)" style="stroke:#000000; stroke-width:4; stroke-opacity:1; fill:none" points="
  2291.25,1486.45 2291.25,1469.18 
  "/>
<path clip-path="url(#clip780)" d="M 0 0 M237.048 1515.64 Q233.437 1515.64 231.608 1519.2 Q229.803 1522.75 229.803 1529.87 Q229.803 1536.98 231.608 1540.55 Q233.437 1544.09 237.048 1544.09 Q240.682 1544.09 242.488 1540.55 Q244.317 1536.98 244.317 1529.87 Q244.317 1522.75 242.488 1519.2 Q240.682 1515.64 237.048 1515.64 M237.048 1511.93 Q242.858 1511.93 245.914 1516.54 Q248.993 1521.12 248.993 1529.87 Q248.993 1538.6 245.914 1543.21 Q242.858 1547.79 237.048 1547.79 Q231.238 1547.79 228.159 1543.21 Q225.104 1538.6 225.104 1529.87 Q225.104 1521.12 228.159 1516.54 Q231.238 1511.93 237.048 1511.93 Z" fill="#000000" fill-rule="evenodd" fill-opacity="1" /><path clip-path="url(#clip780)" d="M 0 0 M611.257 1543.18 L618.896 1543.18 L618.896 1516.82 L610.586 1518.49 L610.586 1514.23 L618.85 1512.56 L623.526 1512.56 L623.526 1543.18 L631.165 1543.18 L631.165 1547.12 L611.257 1547.12 L611.257 1543.18 Z" fill="#000000" fill-rule="evenodd" fill-opacity="1" /><path clip-path="url(#clip780)" d="M 0 0 M646.234 1515.64 Q642.623 1515.64 640.794 1519.2 Q638.989 1522.75 638.989 1529.87 Q638.989 1536.98 640.794 1540.55 Q642.623 1544.09 646.234 1544.09 Q649.868 1544.09 651.674 1540.55 Q653.503 1536.98 653.503 1529.87 Q653.503 1522.75 651.674 1519.2 Q649.868 1515.64 646.234 1515.64 M646.234 1511.93 Q652.044 1511.93 655.1 1516.54 Q658.178 1521.12 658.178 1529.87 Q658.178 1538.6 655.1 1543.21 Q652.044 1547.79 646.234 1547.79 Q640.424 1547.79 637.345 1543.21 Q634.29 1538.6 634.29 1529.87 Q634.29 1521.12 637.345 1516.54 Q640.424 1511.93 646.234 1511.93 Z" fill="#000000" fill-rule="evenodd" fill-opacity="1" /><path clip-path="url(#clip780)" d="M 0 0 M673.248 1515.64 Q669.637 1515.64 667.808 1519.2 Q666.002 1522.75 666.002 1529.87 Q666.002 1536.98 667.808 1540.55 Q669.637 1544.09 673.248 1544.09 Q676.882 1544.09 678.688 1540.55 Q680.516 1536.98 680.516 1529.87 Q680.516 1522.75 678.688 1519.2 Q676.882 1515.64 673.248 1515.64 M673.248 1511.93 Q679.058 1511.93 682.113 1516.54 Q685.192 1521.12 685.192 1529.87 Q685.192 1538.6 682.113 1543.21 Q679.058 1547.79 673.248 1547.79 Q667.438 1547.79 664.359 1543.21 Q661.303 1538.6 661.303 1529.87 Q661.303 1521.12 664.359 1516.54 Q667.438 1511.93 673.248 1511.93 Z" fill="#000000" fill-rule="evenodd" fill-opacity="1" /><path clip-path="url(#clip780)" d="M 0 0 M1026.37 1543.18 L1042.69 1543.18 L1042.69 1547.12 L1020.74 1547.12 L1020.74 1543.18 Q1023.41 1540.43 1027.99 1535.8 Q1032.6 1531.15 1033.78 1529.81 Q1036.02 1527.28 1036.9 1525.55 Q1037.8 1523.79 1037.8 1522.1 Q1037.8 1519.34 1035.86 1517.61 Q1033.94 1515.87 1030.84 1515.87 Q1028.64 1515.87 1026.18 1516.63 Q1023.75 1517.4 1020.98 1518.95 L1020.98 1514.23 Q1023.8 1513.09 1026.25 1512.51 Q1028.71 1511.93 1030.74 1511.93 Q1036.11 1511.93 1039.31 1514.62 Q1042.5 1517.31 1042.5 1521.8 Q1042.5 1523.93 1041.69 1525.85 Q1040.91 1527.74 1038.8 1530.34 Q1038.22 1531.01 1035.12 1534.23 Q1032.02 1537.42 1026.37 1543.18 Z" fill="#000000" fill-rule="evenodd" fill-opacity="1" /><path clip-path="url(#clip780)" d="M 0 0 M1057.76 1515.64 Q1054.15 1515.64 1052.32 1519.2 Q1050.51 1522.75 1050.51 1529.87 Q1050.51 1536.98 1052.32 1540.55 Q1054.15 1544.09 1057.76 1544.09 Q1061.39 1544.09 1063.2 1540.55 Q1065.03 1536.98 1065.03 1529.87 Q1065.03 1522.75 1063.2 1519.2 Q1061.39 1515.64 1057.76 1515.64 M1057.76 1511.93 Q1063.57 1511.93 1066.62 1516.54 Q1069.7 1521.12 1069.7 1529.87 Q1069.7 1538.6 1066.62 1543.21 Q1063.57 1547.79 1057.76 1547.79 Q1051.95 1547.79 1048.87 1543.21 Q1045.81 1538.6 1045.81 1529.87 Q1045.81 1521.12 1048.87 1516.54 Q1051.95 1511.93 1057.76 1511.93 Z" fill="#000000" fill-rule="evenodd" fill-opacity="1" /><path clip-path="url(#clip780)" d="M 0 0 M1084.77 1515.64 Q1081.16 1515.64 1079.33 1519.2 Q1077.53 1522.75 1077.53 1529.87 Q1077.53 1536.98 1079.33 1540.55 Q1081.16 1544.09 1084.77 1544.09 Q1088.41 1544.09 1090.21 1540.55 Q1092.04 1536.98 1092.04 1529.87 Q1092.04 1522.75 1090.21 1519.2 Q1088.41 1515.64 1084.77 1515.64 M1084.77 1511.93 Q1090.58 1511.93 1093.64 1516.54 Q1096.72 1521.12 1096.72 1529.87 Q1096.72 1538.6 1093.64 1543.21 Q1090.58 1547.79 1084.77 1547.79 Q1078.96 1547.79 1075.88 1543.21 Q1072.83 1538.6 1072.83 1529.87 Q1072.83 1521.12 1075.88 1516.54 Q1078.96 1511.93 1084.77 1511.93 Z" fill="#000000" fill-rule="evenodd" fill-opacity="1" /><path clip-path="url(#clip780)" d="M 0 0 M1446.8 1528.49 Q1450.16 1529.2 1452.04 1531.47 Q1453.93 1533.74 1453.93 1537.07 Q1453.93 1542.19 1450.42 1544.99 Q1446.9 1547.79 1440.42 1547.79 Q1438.24 1547.79 1435.93 1547.35 Q1433.63 1546.93 1431.18 1546.08 L1431.18 1541.56 Q1433.12 1542.7 1435.44 1543.28 Q1437.75 1543.86 1440.28 1543.86 Q1444.68 1543.86 1446.97 1542.12 Q1449.28 1540.38 1449.28 1537.07 Q1449.28 1534.02 1447.13 1532.31 Q1445 1530.57 1441.18 1530.57 L1437.15 1530.57 L1437.15 1526.73 L1441.37 1526.73 Q1444.81 1526.73 1446.64 1525.36 Q1448.47 1523.97 1448.47 1521.38 Q1448.47 1518.72 1446.57 1517.31 Q1444.7 1515.87 1441.18 1515.87 Q1439.26 1515.87 1437.06 1516.29 Q1434.86 1516.7 1432.22 1517.58 L1432.22 1513.42 Q1434.88 1512.68 1437.2 1512.31 Q1439.54 1511.93 1441.6 1511.93 Q1446.92 1511.93 1450.02 1514.37 Q1453.12 1516.77 1453.12 1520.89 Q1453.12 1523.76 1451.48 1525.75 Q1449.84 1527.72 1446.8 1528.49 Z" fill="#000000" fill-rule="evenodd" fill-opacity="1" /><path clip-path="url(#clip780)" d="M 0 0 M1469 1515.64 Q1465.39 1515.64 1463.56 1519.2 Q1461.76 1522.75 1461.76 1529.87 Q1461.76 1536.98 1463.56 1540.55 Q1465.39 1544.09 1469 1544.09 Q1472.64 1544.09 1474.44 1540.55 Q1476.27 1536.98 1476.27 1529.87 Q1476.27 1522.75 1474.44 1519.2 Q1472.64 1515.64 1469 1515.64 M1469 1511.93 Q1474.81 1511.93 1477.87 1516.54 Q1480.95 1521.12 1480.95 1529.87 Q1480.95 1538.6 1477.87 1543.21 Q1474.81 1547.79 1469 1547.79 Q1463.19 1547.79 1460.12 1543.21 Q1457.06 1538.6 1457.06 1529.87 Q1457.06 1521.12 1460.12 1516.54 Q1463.19 1511.93 1469 1511.93 Z" fill="#000000" fill-rule="evenodd" fill-opacity="1" /><path clip-path="url(#clip780)" d="M 0 0 M1496.02 1515.64 Q1492.41 1515.64 1490.58 1519.2 Q1488.77 1522.75 1488.77 1529.87 Q1488.77 1536.98 1490.58 1540.55 Q1492.41 1544.09 1496.02 1544.09 Q1499.65 1544.09 1501.46 1540.55 Q1503.29 1536.98 1503.29 1529.87 Q1503.29 1522.75 1501.46 1519.2 Q1499.65 1515.64 1496.02 1515.64 M1496.02 1511.93 Q1501.83 1511.93 1504.88 1516.54 Q1507.96 1521.12 1507.96 1529.87 Q1507.96 1538.6 1504.88 1543.21 Q1501.83 1547.79 1496.02 1547.79 Q1490.21 1547.79 1487.13 1543.21 Q1484.07 1538.6 1484.07 1529.87 Q1484.07 1521.12 1487.13 1516.54 Q1490.21 1511.93 1496.02 1511.93 Z" fill="#000000" fill-rule="evenodd" fill-opacity="1" /><path clip-path="url(#clip780)" d="M 0 0 M1856.41 1516.63 L1844.6 1535.08 L1856.41 1535.08 L1856.41 1516.63 M1855.18 1512.56 L1861.06 1512.56 L1861.06 1535.08 L1865.99 1535.08 L1865.99 1538.97 L1861.06 1538.97 L1861.06 1547.12 L1856.41 1547.12 L1856.41 1538.97 L1840.81 1538.97 L1840.81 1534.46 L1855.18 1512.56 Z" fill="#000000" fill-rule="evenodd" fill-opacity="1" /><path clip-path="url(#clip780)" d="M 0 0 M1881.06 1515.64 Q1877.45 1515.64 1875.62 1519.2 Q1873.81 1522.75 1873.81 1529.87 Q1873.81 1536.98 1875.62 1540.55 Q1877.45 1544.09 1881.06 1544.09 Q1884.69 1544.09 1886.5 1540.55 Q1888.33 1536.98 1888.33 1529.87 Q1888.33 1522.75 1886.5 1519.2 Q1884.69 1515.64 1881.06 1515.64 M1881.06 1511.93 Q1886.87 1511.93 1889.93 1516.54 Q1893 1521.12 1893 1529.87 Q1893 1538.6 1889.93 1543.21 Q1886.87 1547.79 1881.06 1547.79 Q1875.25 1547.79 1872.17 1543.21 Q1869.12 1538.6 1869.12 1529.87 Q1869.12 1521.12 1872.17 1516.54 Q1875.25 1511.93 1881.06 1511.93 Z" fill="#000000" fill-rule="evenodd" fill-opacity="1" /><path clip-path="url(#clip780)" d="M 0 0 M1908.07 1515.64 Q1904.46 1515.64 1902.63 1519.2 Q1900.83 1522.75 1900.83 1529.87 Q1900.83 1536.98 1902.63 1540.55 Q1904.46 1544.09 1908.07 1544.09 Q1911.71 1544.09 1913.51 1540.55 Q1915.34 1536.98 1915.34 1529.87 Q1915.34 1522.75 1913.51 1519.2 Q1911.71 1515.64 1908.07 1515.64 M1908.07 1511.93 Q1913.88 1511.93 1916.94 1516.54 Q1920.02 1521.12 1920.02 1529.87 Q1920.02 1538.6 1916.94 1543.21 Q1913.88 1547.79 1908.07 1547.79 Q1902.26 1547.79 1899.19 1543.21 Q1896.13 1538.6 1896.13 1529.87 Q1896.13 1521.12 1899.19 1516.54 Q1902.26 1511.93 1908.07 1511.93 Z" fill="#000000" fill-rule="evenodd" fill-opacity="1" /><path clip-path="url(#clip780)" d="M 0 0 M2254.52 1512.56 L2272.87 1512.56 L2272.87 1516.5 L2258.8 1516.5 L2258.8 1524.97 Q2259.82 1524.62 2260.84 1524.46 Q2261.86 1524.27 2262.87 1524.27 Q2268.66 1524.27 2272.04 1527.44 Q2275.42 1530.62 2275.42 1536.03 Q2275.42 1541.61 2271.95 1544.71 Q2268.48 1547.79 2262.16 1547.79 Q2259.98 1547.79 2257.71 1547.42 Q2255.47 1547.05 2253.06 1546.31 L2253.06 1541.61 Q2255.14 1542.74 2257.36 1543.3 Q2259.59 1543.86 2262.06 1543.86 Q2266.07 1543.86 2268.41 1541.75 Q2270.74 1539.64 2270.74 1536.03 Q2270.74 1532.42 2268.41 1530.31 Q2266.07 1528.21 2262.06 1528.21 Q2260.19 1528.21 2258.31 1528.62 Q2256.46 1529.04 2254.52 1529.92 L2254.52 1512.56 Z" fill="#000000" fill-rule="evenodd" fill-opacity="1" /><path clip-path="url(#clip780)" d="M 0 0 M2290.49 1515.64 Q2286.88 1515.64 2285.05 1519.2 Q2283.24 1522.75 2283.24 1529.87 Q2283.24 1536.98 2285.05 1540.55 Q2286.88 1544.09 2290.49 1544.09 Q2294.12 1544.09 2295.93 1540.55 Q2297.76 1536.98 2297.76 1529.87 Q2297.76 1522.75 2295.93 1519.2 Q2294.12 1515.64 2290.49 1515.64 M2290.49 1511.93 Q2296.3 1511.93 2299.35 1516.54 Q2302.43 1521.12 2302.43 1529.87 Q2302.43 1538.6 2299.35 1543.21 Q2296.3 1547.79 2290.49 1547.79 Q2284.68 1547.79 2281.6 1543.21 Q2278.54 1538.6 2278.54 1529.87 Q2278.54 1521.12 2281.6 1516.54 Q2284.68 1511.93 2290.49 1511.93 Z" fill="#000000" fill-rule="evenodd" fill-opacity="1" /><path clip-path="url(#clip780)" d="M 0 0 M2317.5 1515.64 Q2313.89 1515.64 2312.06 1519.2 Q2310.26 1522.75 2310.26 1529.87 Q2310.26 1536.98 2312.06 1540.55 Q2313.89 1544.09 2317.5 1544.09 Q2321.14 1544.09 2322.94 1540.55 Q2324.77 1536.98 2324.77 1529.87 Q2324.77 1522.75 2322.94 1519.2 Q2321.14 1515.64 2317.5 1515.64 M2317.5 1511.93 Q2323.31 1511.93 2326.37 1516.54 Q2329.45 1521.12 2329.45 1529.87 Q2329.45 1538.6 2326.37 1543.21 Q2323.31 1547.79 2317.5 1547.79 Q2311.69 1547.79 2308.61 1543.21 Q2305.56 1538.6 2305.56 1529.87 Q2305.56 1521.12 2308.61 1516.54 Q2311.69 1511.93 2317.5 1511.93 Z" fill="#000000" fill-rule="evenodd" fill-opacity="1" /><polyline clip-path="url(#clip782)" style="stroke:#000000; stroke-width:2; stroke-opacity:0.1; fill:none" points="
  179.654,1429.06 2352.76,1429.06 
  "/>
<polyline clip-path="url(#clip782)" style="stroke:#000000; stroke-width:2; stroke-opacity:0.1; fill:none" points="
  179.654,1229.69 2352.76,1229.69 
  "/>
<polyline clip-path="url(#clip782)" style="stroke:#000000; stroke-width:2; stroke-opacity:0.1; fill:none" points="
  179.654,1030.32 2352.76,1030.32 
  "/>
<polyline clip-path="url(#clip782)" style="stroke:#000000; stroke-width:2; stroke-opacity:0.1; fill:none" points="
  179.654,830.944 2352.76,830.944 
  "/>
<polyline clip-path="url(#clip782)" style="stroke:#000000; stroke-width:2; stroke-opacity:0.1; fill:none" points="
  179.654,631.572 2352.76,631.572 
  "/>
<polyline clip-path="url(#clip782)" style="stroke:#000000; stroke-width:2; stroke-opacity:0.1; fill:none" points="
  179.654,432.2 2352.76,432.2 
  "/>
<polyline clip-path="url(#clip782)" style="stroke:#000000; stroke-width:2; stroke-opacity:0.1; fill:none" points="
  179.654,232.829 2352.76,232.829 
  "/>
<polyline clip-path="url(#clip780)" style="stroke:#000000; stroke-width:4; stroke-opacity:1; fill:none" points="
  179.654,1486.45 179.654,47.2441 
  "/>
<polyline clip-path="url(#clip780)" style="stroke:#000000; stroke-width:4; stroke-opacity:1; fill:none" points="
  179.654,1429.06 205.731,1429.06 
  "/>
<polyline clip-path="url(#clip780)" style="stroke:#000000; stroke-width:4; stroke-opacity:1; fill:none" points="
  179.654,1229.69 205.731,1229.69 
  "/>
<polyline clip-path="url(#clip780)" style="stroke:#000000; stroke-width:4; stroke-opacity:1; fill:none" points="
  179.654,1030.32 205.731,1030.32 
  "/>
<polyline clip-path="url(#clip780)" style="stroke:#000000; stroke-width:4; stroke-opacity:1; fill:none" points="
  179.654,830.944 205.731,830.944 
  "/>
<polyline clip-path="url(#clip780)" style="stroke:#000000; stroke-width:4; stroke-opacity:1; fill:none" points="
  179.654,631.572 205.731,631.572 
  "/>
<polyline clip-path="url(#clip780)" style="stroke:#000000; stroke-width:4; stroke-opacity:1; fill:none" points="
  179.654,432.2 205.731,432.2 
  "/>
<polyline clip-path="url(#clip780)" style="stroke:#000000; stroke-width:4; stroke-opacity:1; fill:none" points="
  179.654,232.829 205.731,232.829 
  "/>
<path clip-path="url(#clip780)" d="M 0 0 M51.8949 1429.51 L81.5707 1429.51 L81.5707 1433.45 L51.8949 1433.45 L51.8949 1429.51 Z" fill="#000000" fill-rule="evenodd" fill-opacity="1" /><path clip-path="url(#clip780)" d="M 0 0 M85.4595 1411.78 L107.682 1411.78 L107.682 1413.77 L95.1354 1446.34 L90.2512 1446.34 L102.057 1415.71 L85.4595 1415.71 L85.4595 1411.78 Z" fill="#000000" fill-rule="evenodd" fill-opacity="1" /><path clip-path="url(#clip780)" d="M 0 0 M112.751 1440.46 L117.635 1440.46 L117.635 1446.34 L112.751 1446.34 L112.751 1440.46 Z" fill="#000000" fill-rule="evenodd" fill-opacity="1" /><path clip-path="url(#clip780)" d="M 0 0 M122.751 1411.78 L141.107 1411.78 L141.107 1415.71 L127.033 1415.71 L127.033 1424.19 Q128.052 1423.84 129.07 1423.68 Q130.089 1423.49 131.107 1423.49 Q136.894 1423.49 140.274 1426.66 Q143.654 1429.83 143.654 1435.25 Q143.654 1440.83 140.181 1443.93 Q136.709 1447.01 130.39 1447.01 Q128.214 1447.01 125.945 1446.64 Q123.7 1446.27 121.293 1445.53 L121.293 1440.83 Q123.376 1441.96 125.598 1442.52 Q127.82 1443.07 130.297 1443.07 Q134.302 1443.07 136.64 1440.97 Q138.978 1438.86 138.978 1435.25 Q138.978 1431.64 136.64 1429.53 Q134.302 1427.43 130.297 1427.43 Q128.422 1427.43 126.547 1427.84 Q124.695 1428.26 122.751 1429.14 L122.751 1411.78 Z" fill="#000000" fill-rule="evenodd" fill-opacity="1" /><path clip-path="url(#clip780)" d="M 0 0 M50.9921 1230.14 L80.6679 1230.14 L80.6679 1234.07 L50.9921 1234.07 L50.9921 1230.14 Z" fill="#000000" fill-rule="evenodd" fill-opacity="1" /><path clip-path="url(#clip780)" d="M 0 0 M85.7836 1212.41 L104.14 1212.41 L104.14 1216.34 L90.066 1216.34 L90.066 1224.81 Q91.0845 1224.47 92.103 1224.31 Q93.1215 1224.12 94.14 1224.12 Q99.927 1224.12 103.307 1227.29 Q106.686 1230.46 106.686 1235.88 Q106.686 1241.46 103.214 1244.56 Q99.7419 1247.64 93.4225 1247.64 Q91.2465 1247.64 88.978 1247.27 Q86.7327 1246.9 84.3253 1246.16 L84.3253 1241.46 Q86.4086 1242.59 88.6308 1243.15 Q90.853 1243.7 93.3299 1243.7 Q97.3345 1243.7 99.6724 1241.6 Q102.01 1239.49 102.01 1235.88 Q102.01 1232.27 99.6724 1230.16 Q97.3345 1228.06 93.3299 1228.06 Q91.4549 1228.06 89.5799 1228.47 Q87.728 1228.89 85.7836 1229.77 L85.7836 1212.41 Z" fill="#000000" fill-rule="evenodd" fill-opacity="1" /><path clip-path="url(#clip780)" d="M 0 0 M111.756 1241.09 L116.64 1241.09 L116.64 1246.97 L111.756 1246.97 L111.756 1241.09 Z" fill="#000000" fill-rule="evenodd" fill-opacity="1" /><path clip-path="url(#clip780)" d="M 0 0 M131.709 1215.49 Q128.098 1215.49 126.27 1219.05 Q124.464 1222.59 124.464 1229.72 Q124.464 1236.83 126.27 1240.39 Q128.098 1243.93 131.709 1243.93 Q135.344 1243.93 137.149 1240.39 Q138.978 1236.83 138.978 1229.72 Q138.978 1222.59 137.149 1219.05 Q135.344 1215.49 131.709 1215.49 M131.709 1211.78 Q137.519 1211.78 140.575 1216.39 Q143.654 1220.97 143.654 1229.72 Q143.654 1238.45 140.575 1243.06 Q137.519 1247.64 131.709 1247.64 Q125.899 1247.64 122.82 1243.06 Q119.765 1238.45 119.765 1229.72 Q119.765 1220.97 122.82 1216.39 Q125.899 1211.78 131.709 1211.78 Z" fill="#000000" fill-rule="evenodd" fill-opacity="1" /><path clip-path="url(#clip780)" d="M 0 0 M52.5893 1030.77 L82.2651 1030.77 L82.2651 1034.7 L52.5893 1034.7 L52.5893 1030.77 Z" fill="#000000" fill-rule="evenodd" fill-opacity="1" /><path clip-path="url(#clip780)" d="M 0 0 M91.3623 1043.66 L107.682 1043.66 L107.682 1047.6 L85.7373 1047.6 L85.7373 1043.66 Q88.3993 1040.91 92.9826 1036.28 Q97.5891 1031.62 98.7696 1030.28 Q101.015 1027.76 101.895 1026.02 Q102.797 1024.26 102.797 1022.57 Q102.797 1019.82 100.853 1018.08 Q98.9317 1016.35 95.8298 1016.35 Q93.6308 1016.35 91.1771 1017.11 Q88.7466 1017.87 85.9688 1019.42 L85.9688 1014.7 Q88.7928 1013.57 91.2465 1012.99 Q93.7002 1012.41 95.7373 1012.41 Q101.108 1012.41 104.302 1015.1 Q107.496 1017.78 107.496 1022.27 Q107.496 1024.4 106.686 1026.32 Q105.899 1028.22 103.793 1030.81 Q103.214 1031.48 100.112 1034.7 Q97.0104 1037.9 91.3623 1043.66 Z" fill="#000000" fill-rule="evenodd" fill-opacity="1" /><path clip-path="url(#clip780)" d="M 0 0 M112.751 1041.72 L117.635 1041.72 L117.635 1047.6 L112.751 1047.6 L112.751 1041.72 Z" fill="#000000" fill-rule="evenodd" fill-opacity="1" /><path clip-path="url(#clip780)" d="M 0 0 M122.751 1013.04 L141.107 1013.04 L141.107 1016.97 L127.033 1016.97 L127.033 1025.44 Q128.052 1025.1 129.07 1024.93 Q130.089 1024.75 131.107 1024.75 Q136.894 1024.75 140.274 1027.92 Q143.654 1031.09 143.654 1036.51 Q143.654 1042.09 140.181 1045.19 Q136.709 1048.27 130.39 1048.27 Q128.214 1048.27 125.945 1047.9 Q123.7 1047.53 121.293 1046.79 L121.293 1042.09 Q123.376 1043.22 125.598 1043.78 Q127.82 1044.33 130.297 1044.33 Q134.302 1044.33 136.64 1042.23 Q138.978 1040.12 138.978 1036.51 Q138.978 1032.9 136.64 1030.79 Q134.302 1028.68 130.297 1028.68 Q128.422 1028.68 126.547 1029.1 Q124.695 1029.52 122.751 1030.4 L122.751 1013.04 Z" fill="#000000" fill-rule="evenodd" fill-opacity="1" /><path clip-path="url(#clip780)" d="M 0 0 M94.7419 816.742 Q91.1308 816.742 89.3021 820.307 Q87.4966 823.849 87.4966 830.978 Q87.4966 838.085 89.3021 841.65 Q91.1308 845.191 94.7419 845.191 Q98.3761 845.191 100.182 841.65 Q102.01 838.085 102.01 830.978 Q102.01 823.849 100.182 820.307 Q98.3761 816.742 94.7419 816.742 M94.7419 813.039 Q100.552 813.039 103.608 817.645 Q106.686 822.228 106.686 830.978 Q106.686 839.705 103.608 844.312 Q100.552 848.895 94.7419 848.895 Q88.9317 848.895 85.8531 844.312 Q82.7975 839.705 82.7975 830.978 Q82.7975 822.228 85.8531 817.645 Q88.9317 813.039 94.7419 813.039 Z" fill="#000000" fill-rule="evenodd" fill-opacity="1" /><path clip-path="url(#clip780)" d="M 0 0 M111.756 842.344 L116.64 842.344 L116.64 848.224 L111.756 848.224 L111.756 842.344 Z" fill="#000000" fill-rule="evenodd" fill-opacity="1" /><path clip-path="url(#clip780)" d="M 0 0 M131.709 816.742 Q128.098 816.742 126.27 820.307 Q124.464 823.849 124.464 830.978 Q124.464 838.085 126.27 841.65 Q128.098 845.191 131.709 845.191 Q135.344 845.191 137.149 841.65 Q138.978 838.085 138.978 830.978 Q138.978 823.849 137.149 820.307 Q135.344 816.742 131.709 816.742 M131.709 813.039 Q137.519 813.039 140.575 817.645 Q143.654 822.228 143.654 830.978 Q143.654 839.705 140.575 844.312 Q137.519 848.895 131.709 848.895 Q125.899 848.895 122.82 844.312 Q119.765 839.705 119.765 830.978 Q119.765 822.228 122.82 817.645 Q125.899 813.039 131.709 813.039 Z" fill="#000000" fill-rule="evenodd" fill-opacity="1" /><path clip-path="url(#clip780)" d="M 0 0 M91.3623 644.917 L107.682 644.917 L107.682 648.852 L85.7373 648.852 L85.7373 644.917 Q88.3993 642.162 92.9826 637.533 Q97.5891 632.88 98.7696 631.537 Q101.015 629.014 101.895 627.278 Q102.797 625.519 102.797 623.829 Q102.797 621.074 100.853 619.338 Q98.9317 617.602 95.8298 617.602 Q93.6308 617.602 91.1771 618.366 Q88.7466 619.13 85.9688 620.681 L85.9688 615.959 Q88.7928 614.824 91.2465 614.246 Q93.7002 613.667 95.7373 613.667 Q101.108 613.667 104.302 616.352 Q107.496 619.037 107.496 623.528 Q107.496 625.658 106.686 627.579 Q105.899 629.477 103.793 632.07 Q103.214 632.741 100.112 635.959 Q97.0104 639.153 91.3623 644.917 Z" fill="#000000" fill-rule="evenodd" fill-opacity="1" /><path clip-path="url(#clip780)" d="M 0 0 M112.751 642.972 L117.635 642.972 L117.635 648.852 L112.751 648.852 L112.751 642.972 Z" fill="#000000" fill-rule="evenodd" fill-opacity="1" /><path clip-path="url(#clip780)" d="M 0 0 M122.751 614.292 L141.107 614.292 L141.107 618.227 L127.033 618.227 L127.033 626.699 Q128.052 626.352 129.07 626.19 Q130.089 626.005 131.107 626.005 Q136.894 626.005 140.274 629.176 Q143.654 632.347 143.654 637.764 Q143.654 643.343 140.181 646.445 Q136.709 649.523 130.39 649.523 Q128.214 649.523 125.945 649.153 Q123.7 648.783 121.293 648.042 L121.293 643.343 Q123.376 644.477 125.598 645.033 Q127.82 645.588 130.297 645.588 Q134.302 645.588 136.64 643.482 Q138.978 641.375 138.978 637.764 Q138.978 634.153 136.64 632.047 Q134.302 629.94 130.297 629.94 Q128.422 629.94 126.547 630.357 Q124.695 630.773 122.751 631.653 L122.751 614.292 Z" fill="#000000" fill-rule="evenodd" fill-opacity="1" /><path clip-path="url(#clip780)" d="M 0 0 M85.7836 414.92 L104.14 414.92 L104.14 418.855 L90.066 418.855 L90.066 427.328 Q91.0845 426.98 92.103 426.818 Q93.1215 426.633 94.14 426.633 Q99.927 426.633 103.307 429.804 Q106.686 432.976 106.686 438.392 Q106.686 443.971 103.214 447.073 Q99.7419 450.152 93.4225 450.152 Q91.2465 450.152 88.978 449.781 Q86.7327 449.411 84.3253 448.67 L84.3253 443.971 Q86.4086 445.105 88.6308 445.661 Q90.853 446.216 93.3299 446.216 Q97.3345 446.216 99.6724 444.11 Q102.01 442.003 102.01 438.392 Q102.01 434.781 99.6724 432.675 Q97.3345 430.568 93.3299 430.568 Q91.4549 430.568 89.5799 430.985 Q87.728 431.402 85.7836 432.281 L85.7836 414.92 Z" fill="#000000" fill-rule="evenodd" fill-opacity="1" /><path clip-path="url(#clip780)" d="M 0 0 M111.756 443.601 L116.64 443.601 L116.64 449.48 L111.756 449.48 L111.756 443.601 Z" fill="#000000" fill-rule="evenodd" fill-opacity="1" /><path clip-path="url(#clip780)" d="M 0 0 M131.709 417.999 Q128.098 417.999 126.27 421.564 Q124.464 425.105 124.464 432.235 Q124.464 439.341 126.27 442.906 Q128.098 446.448 131.709 446.448 Q135.344 446.448 137.149 442.906 Q138.978 439.341 138.978 432.235 Q138.978 425.105 137.149 421.564 Q135.344 417.999 131.709 417.999 M131.709 414.295 Q137.519 414.295 140.575 418.902 Q143.654 423.485 143.654 432.235 Q143.654 440.962 140.575 445.568 Q137.519 450.152 131.709 450.152 Q125.899 450.152 122.82 445.568 Q119.765 440.962 119.765 432.235 Q119.765 423.485 122.82 418.902 Q125.899 414.295 131.709 414.295 Z" fill="#000000" fill-rule="evenodd" fill-opacity="1" /><path clip-path="url(#clip780)" d="M 0 0 M85.4595 215.549 L107.682 215.549 L107.682 217.539 L95.1354 250.109 L90.2512 250.109 L102.057 219.484 L85.4595 219.484 L85.4595 215.549 Z" fill="#000000" fill-rule="evenodd" fill-opacity="1" /><path clip-path="url(#clip780)" d="M 0 0 M112.751 244.229 L117.635 244.229 L117.635 250.109 L112.751 250.109 L112.751 244.229 Z" fill="#000000" fill-rule="evenodd" fill-opacity="1" /><path clip-path="url(#clip780)" d="M 0 0 M122.751 215.549 L141.107 215.549 L141.107 219.484 L127.033 219.484 L127.033 227.956 Q128.052 227.609 129.07 227.447 Q130.089 227.262 131.107 227.262 Q136.894 227.262 140.274 230.433 Q143.654 233.604 143.654 239.021 Q143.654 244.599 140.181 247.701 Q136.709 250.78 130.39 250.78 Q128.214 250.78 125.945 250.41 Q123.7 250.039 121.293 249.298 L121.293 244.599 Q123.376 245.734 125.598 246.289 Q127.82 246.845 130.297 246.845 Q134.302 246.845 136.64 244.738 Q138.978 242.632 138.978 239.021 Q138.978 235.41 136.64 233.303 Q134.302 231.197 130.297 231.197 Q128.422 231.197 126.547 231.613 Q124.695 232.03 122.751 232.91 L122.751 215.549 Z" fill="#000000" fill-rule="evenodd" fill-opacity="1" /><polyline clip-path="url(#clip782)" style="stroke:#009af9; stroke-width:4; stroke-opacity:1; fill:none" points="
  241.157,862.808 245.265,867.961 249.373,846.908 253.482,843.743 257.59,883.374 261.699,871.034 265.807,851.226 269.915,819.518 274.024,786.878 278.132,822.544 
  282.241,840.936 286.349,831.851 290.457,861.72 294.566,825.215 298.674,787.074 302.783,809.104 306.891,818.935 311,854.938 315.108,840.396 319.216,839.312 
  323.325,818.917 327.433,801.021 331.542,792.756 335.65,769.817 339.758,808.641 343.867,803.193 347.975,765.838 352.084,781.276 356.192,820.376 360.3,809.122 
  364.409,796.532 368.517,772.887 372.626,768.944 376.734,735.737 380.842,734.369 384.951,707.667 389.059,737.503 393.168,716.786 397.276,727.043 401.385,762.161 
  405.493,731.808 409.601,725.65 413.71,708.024 417.818,698.223 421.927,711.747 426.035,691.541 430.143,671.532 434.252,645.916 438.36,673.695 442.469,643.209 
  446.577,621.535 450.685,623.367 454.794,621.264 458.902,650.076 463.011,647.793 467.119,651.826 471.228,625.393 475.336,632.399 479.444,627.594 483.553,602.66 
  487.661,565.66 491.77,559.396 495.878,541.975 499.986,532.701 504.095,550.517 508.203,544.423 512.312,508.081 516.42,530.156 520.528,516.697 524.637,506.414 
  528.745,503.95 532.854,466.143 536.962,445.629 541.07,424.811 545.179,440.311 549.287,430.714 553.396,397.99 557.504,387.383 561.613,366.241 565.721,388.205 
  569.829,406.656 573.938,441.526 578.046,424.381 582.155,429.846 586.263,459.231 590.371,485.322 594.48,498.597 598.588,472.422 602.697,462.766 606.805,461.365 
  610.913,447.593 615.022,423.018 619.13,396.863 623.239,368.187 627.347,365.042 631.455,371.512 635.564,359.121 639.672,322.804 643.781,287.577 647.889,254.736 
  651.998,272.787 656.106,287.999 660.214,250.602 664.323,224.23 668.431,230.187 672.54,259.077 676.648,290.708 680.756,293.666 684.865,326.229 688.973,293.882 
  693.082,292.011 697.19,326.919 701.298,355.079 705.407,316.992 709.515,311.178 713.624,307.28 717.732,271.437 721.84,287.72 725.949,313.99 730.057,314.902 
  734.166,312.031 738.274,288.966 742.383,278.46 746.491,258.498 750.599,244.915 754.708,231.016 758.816,207.484 762.925,196.7 767.033,157.425 771.141,124.285 
  775.25,136.956 779.358,138.515 783.467,140.429 787.575,118.153 791.683,140.147 795.792,159.477 799.9,198.837 804.009,193.367 808.117,198.2 812.226,176.35 
  816.334,151.707 820.442,153.514 824.551,160.512 828.659,188.834 832.768,202.837 836.876,210.143 840.984,212.661 845.093,179.409 849.201,150.365 853.31,158.161 
  857.418,155.82 861.526,146.112 865.635,118.285 869.743,97.5424 873.852,123.701 877.96,137.902 882.068,177.323 886.177,158.432 890.285,171.815 894.394,206.747 
  898.502,197.888 902.611,196.677 906.719,216.094 910.827,218.91 914.936,206.381 919.044,190.554 923.153,188.392 927.261,159.686 931.369,134.616 935.478,145.87 
  939.586,106.431 943.695,126.85 947.803,147.707 951.911,175.725 956.02,165.537 960.128,188.717 964.237,201.784 968.345,188.913 972.453,171.058 976.562,159.735 
  980.67,161.139 984.779,149.424 988.887,136.306 992.996,157.662 997.104,139.866 1001.21,137.948 1005.32,156.199 1009.43,141.492 1013.54,151.257 1017.65,154.44 
  1021.75,118.335 1025.86,154.996 1029.97,167.707 1034.08,131.884 1038.19,108.544 1042.3,87.9763 1046.4,121.137 1050.51,143.147 1054.62,151.303 1058.73,151.061 
  1062.84,182.076 1066.95,158.589 1071.06,151.05 1075.16,135.774 1079.27,155.793 1083.38,187.1 1087.49,167.282 1091.6,187.083 1095.71,198.821 1099.81,233.845 
  1103.92,268.843 1108.03,233.332 1112.14,244.699 1116.25,270.751 1120.36,278.978 1124.46,273.923 1128.57,244.483 1132.68,246.789 1136.79,238.124 1140.9,261.094 
  1145.01,229.643 1149.12,265.334 1153.22,253.701 1157.33,256.188 1161.44,276.152 1165.55,244.93 1169.66,234.512 1173.77,267.106 1177.87,305.789 1181.98,305.079 
  1186.09,291.313 1190.2,321.381 1194.31,314.986 1198.42,290.422 1202.52,289.954 1206.63,266.615 1210.74,241.822 1214.85,242.567 1218.96,210.034 1223.07,185.395 
  1227.17,218.354 1231.28,256.944 1235.39,228.48 1239.5,204.585 1243.61,201.163 1247.72,168.32 1251.83,160.414 1255.93,182.701 1260.04,203.729 1264.15,229.675 
  1268.26,265.871 1272.37,276.647 1276.48,297.139 1280.58,267.517 1284.69,297.088 1288.8,257.421 1292.91,271.468 1297.02,290.208 1301.13,318.968 1305.23,291.297 
  1309.34,286.294 1313.45,311.24 1317.56,339.629 1321.67,370.408 1325.78,402.931 1329.89,438.897 1333.99,400.46 1338.1,363.295 1342.21,351.576 1346.32,374.128 
  1350.43,377.43 1354.54,399.201 1358.64,406.019 1362.75,393.378 1366.86,378.672 1370.97,387.69 1375.08,381.698 1379.19,357.089 1383.29,384.318 1387.4,421.781 
  1391.51,407.306 1395.62,420.111 1399.73,422.624 1403.84,387.249 1407.94,406.304 1412.05,419.26 1416.16,422.908 1420.27,393.048 1424.38,362.362 1428.49,380.035 
  1432.6,397.982 1436.7,422.87 1440.81,420.543 1444.92,451.776 1449.03,415.039 1453.14,419.564 1457.25,423.165 1461.35,418.356 1465.46,438.268 1469.57,458.896 
  1473.68,450.138 1477.79,430.968 1481.9,404.528 1486,404.733 1490.11,380.762 1494.22,366.5 1498.33,360.015 1502.44,336.083 1506.55,368.71 1510.66,338.613 
  1514.76,348.433 1518.87,323.961 1522.98,312.533 1527.09,312.296 1531.2,274.158 1535.31,281.925 1539.41,284.541 1543.52,299.519 1547.63,335.362 1551.74,327.733 
  1555.85,352.405 1559.96,332.766 1564.06,304.683 1568.17,268.435 1572.28,262.225 1576.39,231.341 1580.5,220.643 1584.61,196.881 1588.71,231.652 1592.82,232.552 
  1596.93,222.461 1601.04,204.019 1605.15,233.636 1609.26,253.133 1613.37,281.106 1617.47,304.868 1621.58,279.778 1625.69,279.499 1629.8,278.608 1633.91,251.303 
  1638.02,252.451 1642.12,241.197 1646.23,244.312 1650.34,241.017 1654.45,201.638 1658.56,188.771 1662.67,204.605 1666.77,190.086 1670.88,179.699 1674.99,212.377 
  1679.1,219.289 1683.21,235.594 1687.32,260.651 1691.43,237.21 1695.53,235.749 1699.64,244.048 1703.75,245.122 1707.86,260.479 1711.97,298.263 1716.08,303.23 
  1720.18,331.369 1724.29,305.096 1728.4,333.536 1732.51,321.778 1736.62,351.666 1740.73,355.208 1744.83,348.944 1748.94,345.25 1753.05,309.258 1757.16,316.474 
  1761.27,281.703 1765.38,281.326 1769.48,262.983 1773.59,238.797 1777.7,241.655 1781.81,231.933 1785.92,192.994 1790.03,211.378 1794.14,203.046 1798.24,195.675 
  1802.35,184.25 1806.46,150.344 1810.57,160.537 1814.68,128.114 1818.79,143.567 1822.89,156.484 1827,120.821 1831.11,143.15 1835.22,104.035 1839.33,94.6313 
  1843.44,92.3513 1847.54,121.05 1851.65,125.004 1855.76,152.692 1859.87,134.666 1863.98,156.638 1868.09,190.307 1872.2,160.747 1876.3,160.883 1880.41,126.341 
  1884.52,151.465 1888.63,175.881 1892.74,175.918 1896.85,181.857 1900.95,155.012 1905.06,156.611 1909.17,192.185 1913.28,211.662 1917.39,189 1921.5,198.726 
  1925.6,195.496 1929.71,167.872 1933.82,137.713 1937.93,140.463 1942.04,163.94 1946.15,139.682 1950.26,112.72 1954.36,141.864 1958.47,167.525 1962.58,193.941 
  1966.69,218.867 1970.8,239.499 1974.91,200.032 1979.01,203.82 1983.12,199.201 1987.23,215.783 1991.34,184.021 1995.45,203.84 1999.56,193.597 2003.66,226.187 
  2007.77,204.716 2011.88,228.935 2015.99,232.579 2020.1,236.892 2024.21,225.449 2028.31,190.166 2032.42,220.521 2036.53,211.868 2040.64,197.555 2044.75,211.277 
  2048.86,227.458 2052.97,245.283 2057.07,259.028 2061.18,270.882 2065.29,308.908 2069.4,313.007 2073.51,298.452 2077.62,276.325 2081.72,309.214 2085.83,316.279 
  2089.94,350.795 2094.05,368.174 2098.16,345.738 2102.27,306.185 2106.37,279.941 2110.48,247.793 2114.59,222.834 2118.7,208.458 2122.81,233.852 2126.92,237.886 
  2131.03,208.273 2135.13,223.623 2139.24,204.123 2143.35,208.822 2147.46,183.39 2151.57,179.183 2155.68,198.576 2159.78,181.5 2163.89,196.007 2168,200.134 
  2172.11,232.927 2176.22,244.542 2180.33,242.5 2184.43,264.915 2188.54,289.03 2192.65,287.289 2196.76,249.64 2200.87,272.182 2204.98,310.659 2209.08,328.43 
  2213.19,308.071 2217.3,334.729 2221.41,309.865 2225.52,275.975 2229.63,270.955 2233.74,236.677 2237.84,224.607 2241.95,227.621 2246.06,219.216 2250.17,228.001 
  2254.28,189.463 2258.39,166.323 2262.49,170.843 2266.6,157.588 2270.71,154.564 2274.82,145.504 2278.93,146.759 2283.04,151.299 2287.14,167.489 2291.25,184.587 
  
  "/>
<polyline clip-path="url(#clip782)" style="stroke:#e26f46; stroke-width:4; stroke-opacity:1; fill:none" points="
  241.157,807.57 245.265,771.937 249.373,793.75 253.482,774.14 257.59,812.034 261.699,807.527 265.807,836.603 269.915,817.239 274.024,797.519 278.132,809.219 
  282.241,810.183 286.349,838.568 290.457,875.986 294.566,898.401 298.674,884.176 302.783,906.729 306.891,884.536 311,910.173 315.108,886.049 319.216,853.303 
  323.325,862.342 327.433,872.561 331.542,909.707 335.65,898.373 339.758,923.217 343.867,943.048 347.975,972.603 352.084,937.626 356.192,929.868 360.3,942.162 
  364.409,976.257 368.517,983.661 372.626,944.305 376.734,969.346 380.842,999.783 384.951,1012.92 389.059,1024.92 393.168,1013.21 397.276,1018.33 401.385,994.514 
  405.493,986.422 409.601,975.358 413.71,1011.9 417.818,987.74 421.927,995.422 426.035,985.862 430.143,953.807 434.252,923.816 438.36,889.982 442.469,903.339 
  446.577,922.26 450.685,905.118 454.794,891.46 458.902,923.352 463.011,913.71 467.119,897.476 471.228,875.23 475.336,883.079 479.444,907.926 483.553,903.321 
  487.661,917.123 491.77,903.571 495.878,926.114 499.986,902.697 504.095,939.824 508.203,921.677 512.312,888.367 516.42,906.516 520.528,944.313 524.637,969.809 
  528.745,984.199 532.854,962.816 536.962,969.146 541.07,1005.88 545.179,1044.21 549.287,1075.07 553.396,1074.45 557.504,1077.11 561.613,1071.71 565.721,1075.46 
  569.829,1053.5 573.938,1073.02 578.046,1099.18 582.155,1070.2 586.263,1047.66 590.371,1022.04 594.48,1052.29 598.588,1059.31 602.697,1058.9 606.805,1042.76 
  610.913,1034.89 615.022,1041.46 619.13,1026.7 623.239,1001.69 627.347,1003.37 631.455,1026.16 635.564,1001.69 639.672,1018.29 643.781,989.244 647.889,1020.99 
  651.998,1020.66 656.106,1041.45 660.214,1021.45 664.323,1025.81 668.431,1010.73 672.54,1038.35 676.648,1009.96 680.756,982.414 684.865,981.609 688.973,984.827 
  693.082,1017.21 697.19,1051.88 701.298,1056.03 705.407,1084.62 709.515,1068.48 713.624,1059.79 717.732,1030.71 721.84,1034.63 725.949,1039.25 730.057,1027.92 
  734.166,1058.97 738.274,1053.97 742.383,1075.1 746.491,1052.77 750.599,1035.62 754.708,1056.15 758.816,1041.14 762.925,1072.01 767.033,1069.96 771.141,1059.1 
  775.25,1048.43 779.358,1086.71 783.467,1060.19 787.575,1021.08 791.683,1035.22 795.792,1031.54 799.9,1023.84 804.009,1057 808.117,1018.14 812.226,1040.55 
  816.334,1047.85 820.442,1070.37 824.551,1089.08 828.659,1119.55 832.768,1113.64 836.876,1143.76 840.984,1162.35 845.093,1139.83 849.201,1155.74 853.31,1144.9 
  857.418,1143.44 861.526,1142.16 865.635,1181.71 869.743,1199.45 873.852,1163.53 877.96,1143.37 882.068,1116.42 886.177,1105.89 890.285,1115.52 894.394,1126.94 
  898.502,1122.44 902.611,1116.83 906.719,1101.4 910.827,1096.04 914.936,1064.17 919.044,1040.07 923.153,1069.74 927.261,1103.88 931.369,1090 935.478,1096.39 
  939.586,1094.13 943.695,1067.07 947.803,1084.09 951.911,1058.11 956.02,1035.54 960.128,1065.24 964.237,1057.71 968.345,1050.93 972.453,1016.27 976.562,1023.19 
  980.67,1046.95 984.779,1009.66 988.887,979.883 992.996,953.13 997.104,957.191 1001.21,989.93 1005.32,984.804 1009.43,992.66 1013.54,996.693 1017.65,1030.78 
  1021.75,1036.21 1025.86,1018.86 1029.97,1021.13 1034.08,1033.67 1038.19,1005.19 1042.3,1042.13 1046.4,1074.12 1050.51,1041.68 1054.62,1076.88 1058.73,1039.72 
  1062.84,1061.61 1066.95,1091.73 1071.06,1077.97 1075.16,1071.1 1079.27,1060.33 1083.38,1067.85 1087.49,1042.26 1091.6,1008.45 1095.71,1010.51 1099.81,1038.13 
  1103.92,1054.96 1108.03,1067.06 1112.14,1047.62 1116.25,1058.6 1120.36,1035.62 1124.46,1027.49 1128.57,1041.86 1132.68,1043.49 1136.79,1005.42 1140.9,981.58 
  1145.01,992.76 1149.12,972.815 1153.22,947.7 1157.33,971.999 1161.44,993.787 1165.55,966.273 1169.66,927.018 1173.77,918.262 1177.87,914.394 1181.98,948.828 
  1186.09,941.355 1190.2,903.654 1194.31,891.402 1198.42,920.273 1202.52,891.589 1206.63,919.86 1210.74,912.86 1214.85,906.717 1218.96,881.068 1223.07,914.568 
  1227.17,905.624 1231.28,903.647 1235.39,883.966 1239.5,909.591 1243.61,872.375 1247.72,838.458 1251.83,827.25 1255.93,857.961 1260.04,886.22 1264.15,876.977 
  1268.26,864.42 1272.37,860.252 1276.48,862.611 1280.58,899.109 1284.69,937.903 1288.8,936.085 1292.91,960.154 1297.02,920.421 1301.13,905.46 1305.23,915.372 
  1309.34,923.457 1313.45,952.147 1317.56,986.991 1321.67,1013.83 1325.78,1024.41 1329.89,1021.75 1333.99,1019.07 1338.1,1057.6 1342.21,1021.3 1346.32,996.003 
  1350.43,1031.03 1354.54,1002.91 1358.64,1037.32 1362.75,1014.84 1366.86,1043.38 1370.97,1069.81 1375.08,1075.48 1379.19,1063.65 1383.29,1075.07 1387.4,1081.48 
  1391.51,1048.84 1395.62,1062.55 1399.73,1074.2 1403.84,1064.68 1407.94,1049.55 1412.05,1070.11 1416.16,1063.73 1420.27,1027.41 1424.38,1060.05 1428.49,1084.76 
  1432.6,1103.22 1436.7,1063.51 1440.81,1036.33 1444.92,1024.28 1449.03,986.606 1453.14,950.495 1457.25,960.733 1461.35,926.684 1465.46,911.995 1469.57,883.25 
  1473.68,905.133 1477.79,935.702 1481.9,948.275 1486,948.864 1490.11,935.745 1494.22,904.878 1498.33,944.303 1502.44,963.178 1506.55,958.021 1510.66,934.871 
  1514.76,911.969 1518.87,931.821 1522.98,941.356 1527.09,949.639 1531.2,933.107 1535.31,968.298 1539.41,1005.27 1543.52,976.658 1547.63,964.259 1551.74,929.236 
  1555.85,892.852 1559.96,853.461 1564.06,884.098 1568.17,845.453 1572.28,877.614 1576.39,888.808 1580.5,865.035 1584.61,892.629 1588.71,887.477 1592.82,914.893 
  1596.93,876.133 1601.04,878.803 1605.15,901.22 1609.26,863.803 1613.37,880.632 1617.47,913.853 1621.58,927.661 1625.69,923.571 1629.8,902.337 1633.91,930.676 
  1638.02,952.274 1642.12,982.722 1646.23,975.241 1650.34,959.863 1654.45,980.783 1658.56,962.825 1662.67,974.655 1666.77,967.313 1670.88,963.205 1674.99,930.7 
  1679.1,901.925 1683.21,928.958 1687.32,915.465 1691.43,889.387 1695.53,902.42 1699.64,939.459 1703.75,949.989 1707.86,985.23 1711.97,1001.93 1716.08,1011.59 
  1720.18,1019.25 1724.29,1005.83 1728.4,984.535 1732.51,1007.49 1736.62,999.043 1740.73,1020.38 1744.83,1025.32 1748.94,1005.97 1753.05,990.801 1757.16,954.525 
  1761.27,992.793 1765.38,954.511 1769.48,978.353 1773.59,971.86 1777.7,1005.54 1781.81,969.432 1785.92,957.234 1790.03,991.771 1794.14,986.057 1798.24,956.546 
  1802.35,950.68 1806.46,940.934 1810.57,904.206 1814.68,873.088 1818.79,861.55 1822.89,872.669 1827,907.491 1831.11,891.76 1835.22,920.941 1839.33,955.834 
  1843.44,958.046 1847.54,930.702 1851.65,961.978 1855.76,986.021 1859.87,1021.49 1863.98,1036.45 1868.09,1018.73 1872.2,1035.84 1876.3,998.554 1880.41,1036.11 
  1884.52,997.703 1888.63,1015.79 1892.74,1013.61 1896.85,1048.4 1900.95,1065.58 1905.06,1053.3 1909.17,1016.35 1913.28,1042.78 1917.39,1053.48 1921.5,1035.33 
  1925.6,1013.71 1929.71,976.667 1933.82,941.22 1937.93,978.518 1942.04,980.204 1946.15,971.978 1950.26,1009.77 1954.36,996.506 1958.47,1019.27 1962.58,988.072 
  1966.69,1025.03 1970.8,1031.22 1974.91,1039.01 1979.01,1030.95 1983.12,1015 1987.23,1051.65 1991.34,1077.02 1995.45,1087.67 1999.56,1066.26 2003.66,1062.19 
  2007.77,1066.26 2011.88,1069.52 2015.99,1068.52 2020.1,1077.22 2024.21,1093.2 2028.31,1112.52 2032.42,1094.94 2036.53,1121.95 2040.64,1160.91 2044.75,1171.45 
  2048.86,1187.89 2052.97,1205.98 2057.07,1229.62 2061.18,1267.67 2065.29,1294.59 2069.4,1284.36 2073.51,1276.93 2077.62,1302.79 2081.72,1297.16 2085.83,1290.03 
  2089.94,1282.45 2094.05,1302 2098.16,1330.11 2102.27,1311.36 2106.37,1320.69 2110.48,1302.88 2114.59,1288.81 2118.7,1320.21 2122.81,1348.47 2126.92,1316.42 
  2131.03,1332.63 2135.13,1311.53 2139.24,1339.16 2143.35,1312.21 2147.46,1317.3 2151.57,1345.82 2155.68,1375.4 2159.78,1396.56 2163.89,1358.25 2168,1382.52 
  2172.11,1361.77 2176.22,1385.55 2180.33,1350.96 2184.43,1315.32 2188.54,1310.14 2192.65,1346.95 2196.76,1367.2 2200.87,1384.51 2204.98,1409.34 2209.08,1423.97 
  2213.19,1402.33 2217.3,1368.05 2221.41,1335.94 2225.52,1360.46 2229.63,1394.19 2233.74,1388.31 2237.84,1412.02 2241.95,1395.94 2246.06,1403.59 2250.17,1438.47 
  2254.28,1399.06 2258.39,1408.8 2262.49,1436.56 2266.6,1410.51 2270.71,1386.62 2274.82,1425.09 2278.93,1445.72 2283.04,1434.36 2287.14,1427.64 2291.25,1394.82 
  
  "/>
<path clip-path="url(#clip780)" d="
M1987.85 276.658 L2280.32 276.658 L2280.32 95.2176 L1987.85 95.2176  Z
  " fill="#ffffff" fill-rule="evenodd" fill-opacity="1"/>
<polyline clip-path="url(#clip780)" style="stroke:#000000; stroke-width:4; stroke-opacity:1; fill:none" points="
  1987.85,276.658 2280.32,276.658 2280.32,95.2176 1987.85,95.2176 1987.85,276.658 
  "/>
<polyline clip-path="url(#clip780)" style="stroke:#009af9; stroke-width:4; stroke-opacity:1; fill:none" points="
  2011.99,155.698 2156.86,155.698 
  "/>
<path clip-path="url(#clip780)" d="M 0 0 M2194.85 175.385 Q2193.05 180.015 2191.33 181.427 Q2189.62 182.839 2186.75 182.839 L2183.35 182.839 L2183.35 179.274 L2185.85 179.274 Q2187.61 179.274 2188.58 178.44 Q2189.55 177.607 2190.73 174.505 L2191.5 172.561 L2181.01 147.052 L2185.52 147.052 L2193.63 167.329 L2201.73 147.052 L2206.24 147.052 L2194.85 175.385 Z" fill="#000000" fill-rule="evenodd" fill-opacity="1" /><path clip-path="url(#clip780)" d="M 0 0 M2212.12 169.042 L2219.76 169.042 L2219.76 142.677 L2211.45 144.343 L2211.45 140.084 L2219.71 138.418 L2224.39 138.418 L2224.39 169.042 L2232.03 169.042 L2232.03 172.978 L2212.12 172.978 L2212.12 169.042 Z" fill="#000000" fill-rule="evenodd" fill-opacity="1" /><polyline clip-path="url(#clip780)" style="stroke:#e26f46; stroke-width:4; stroke-opacity:1; fill:none" points="
  2011.99,216.178 2156.86,216.178 
  "/>
<path clip-path="url(#clip780)" d="M 0 0 M2194.85 235.865 Q2193.05 240.495 2191.33 241.907 Q2189.62 243.319 2186.75 243.319 L2183.35 243.319 L2183.35 239.754 L2185.85 239.754 Q2187.61 239.754 2188.58 238.92 Q2189.55 238.087 2190.73 234.985 L2191.5 233.041 L2181.01 207.532 L2185.52 207.532 L2193.63 227.809 L2201.73 207.532 L2206.24 207.532 L2194.85 235.865 Z" fill="#000000" fill-rule="evenodd" fill-opacity="1" /><path clip-path="url(#clip780)" d="M 0 0 M2215.34 229.522 L2231.66 229.522 L2231.66 233.458 L2209.71 233.458 L2209.71 229.522 Q2212.38 226.768 2216.96 222.138 Q2221.57 217.485 2222.75 216.143 Q2224.99 213.62 2225.87 211.884 Q2226.77 210.124 2226.77 208.435 Q2226.77 205.68 2224.83 203.944 Q2222.91 202.208 2219.81 202.208 Q2217.61 202.208 2215.15 202.972 Q2212.72 203.735 2209.94 205.286 L2209.94 200.564 Q2212.77 199.43 2215.22 198.851 Q2217.68 198.273 2219.71 198.273 Q2225.08 198.273 2228.28 200.958 Q2231.47 203.643 2231.47 208.134 Q2231.47 210.263 2230.66 212.185 Q2229.88 214.083 2227.77 216.675 Q2227.19 217.347 2224.09 220.564 Q2220.99 223.759 2215.34 229.522 Z" fill="#000000" fill-rule="evenodd" fill-opacity="1" /></svg>
